<mxfile host="app.diagrams.net" modified="2024-03-11T09:03:04.594Z" agent="Mozilla/5.0 (Windows NT 10.0; Win64; x64) AppleWebKit/537.36 (KHTML, like Gecko) Chrome/121.0.0.0 Safari/537.36 OPR/107.0.0.0" version="24.0.4" etag="jyA_lGLSo2Un7wi0tDTL" type="github">
  <diagram name="Page-1" id="mIupJR-Ys6AZV9ENaitS">
    <mxGraphModel>
      <root>
        <mxCell id="0" />
        <mxCell id="1" parent="0" />
      </root>
    </mxGraphModel>
  </diagram>
</mxfile>
